<svg width="76" height="76" viewBox="0 0 76 76" fill="none" xmlns="http://www.w3.org/2000/svg">
<g filter="url(#filter0_d_1209_4035)">
<circle cx="38" cy="28" r="28" fill="#B32AEC"/>
</g>
<g clip-path="url(#clip0_1209_4035)">
<path d="M47.9136 32.8364L46.5197 28.7797C47.1916 27.4062 47.5467 25.8786 47.5491 24.3416C47.5532 21.6691 46.5192 19.1422 44.6376 17.2264C42.7555 15.3103 40.2476 14.2316 37.5757 14.1893C34.8052 14.1455 32.201 15.1994 30.2432 17.1571C28.3553 19.0449 27.3082 21.5337 27.2751 24.1932C25.4144 25.5941 24.3162 27.7782 24.3198 30.1112C24.3215 31.2029 24.5672 32.2881 25.0329 33.2694L24.0727 36.0636C23.9077 36.5439 24.0282 37.0654 24.3874 37.4246C24.6401 37.6774 24.9734 37.812 25.3161 37.812C25.4603 37.812 25.6061 37.7881 25.7484 37.7393L28.5426 36.7791C29.5239 37.2447 30.6091 37.4904 31.7008 37.4922C31.7048 37.4922 31.7085 37.4922 31.7125 37.4922C34.0801 37.4921 36.2809 36.3655 37.6767 34.4593C39.1292 34.421 40.5664 34.0694 41.8656 33.4338L45.9224 34.8278C46.0914 34.8859 46.2647 34.9142 46.4361 34.9142C46.8433 34.9142 47.2393 34.7542 47.5397 34.4538C47.9665 34.027 48.1097 33.4072 47.9136 32.8364ZM31.7124 36.0636C31.7093 36.0636 31.7061 36.0636 31.703 36.0636C30.7368 36.0622 29.7772 35.8239 28.9282 35.3748C28.7537 35.2825 28.5487 35.2665 28.3621 35.3306L25.4969 36.3151L26.4814 33.45C26.5456 33.2633 26.5296 33.0584 26.4373 32.8839C25.9881 32.0349 25.7499 31.0753 25.7484 30.109C25.746 28.5547 26.3507 27.0815 27.408 25.9783C27.7534 28.0837 28.7568 30.0239 30.3123 31.5516C31.8562 33.0681 33.7969 34.0336 35.8909 34.3493C34.7852 35.4391 33.2948 36.0636 31.7124 36.0636ZM46.5295 33.4436C46.4888 33.4843 46.4407 33.4953 46.3865 33.4767L42.0436 31.9844C41.9682 31.9584 41.8897 31.9456 41.8115 31.9456C41.6962 31.9456 41.5814 31.9735 41.4775 32.0285C40.2375 32.6845 38.8363 33.0324 37.4253 33.0345C37.4206 33.0345 37.4164 33.0345 37.4118 33.0345C32.6838 33.0345 28.7785 29.1939 28.7036 24.467C28.6659 22.0865 29.5714 19.8492 31.2533 18.1673C32.9352 16.4853 35.1729 15.5801 37.5531 15.6176C42.2845 15.6927 46.1278 19.6052 46.1205 24.3394C46.1183 25.7504 45.7704 27.1516 45.1145 28.3915C45.0222 28.566 45.0062 28.771 45.0704 28.9577L46.5626 33.3006C46.5812 33.3549 46.5701 33.4031 46.5295 33.4436Z" fill="white"/>
<path d="M41.6668 20.5397H33.1562C32.7617 20.5397 32.4419 20.8595 32.4419 21.254C32.4419 21.6485 32.7617 21.9682 33.1562 21.9682H41.6668C42.0613 21.9682 42.3811 21.6484 42.3811 21.254C42.3811 20.8595 42.0613 20.5397 41.6668 20.5397Z" fill="white"/>
<path d="M41.6668 23.4773H33.1562C32.7617 23.4773 32.4419 23.7971 32.4419 24.1916C32.4419 24.586 32.7617 24.9059 33.1562 24.9059H41.6668C42.0613 24.9059 42.3811 24.586 42.3811 24.1916C42.3811 23.7971 42.0613 23.4773 41.6668 23.4773Z" fill="white"/>
<path d="M38.3909 26.4149H33.1562C32.7617 26.4149 32.4419 26.7347 32.4419 27.1292C32.4419 27.5237 32.7617 27.8435 33.1562 27.8435H38.3908C38.7853 27.8435 39.1051 27.5237 39.1051 27.1292C39.1051 26.7347 38.7854 26.4149 38.3909 26.4149Z" fill="white"/>
</g>
<defs>
<filter id="filter0_d_1209_4035" x="0" y="0" width="76" height="76" filterUnits="userSpaceOnUse" color-interpolation-filters="sRGB">
<feFlood flood-opacity="0" result="BackgroundImageFix"/>
<feColorMatrix in="SourceAlpha" type="matrix" values="0 0 0 0 0 0 0 0 0 0 0 0 0 0 0 0 0 0 127 0" result="hardAlpha"/>
<feOffset dy="10"/>
<feGaussianBlur stdDeviation="5"/>
<feColorMatrix type="matrix" values="0 0 0 0 0.85098 0 0 0 0 0.858824 0 0 0 0 0.913725 0 0 0 1 0"/>
<feBlend mode="normal" in2="BackgroundImageFix" result="effect1_dropShadow_1209_4035"/>
<feBlend mode="normal" in="SourceGraphic" in2="effect1_dropShadow_1209_4035" result="shape"/>
</filter>
<clipPath id="clip0_1209_4035">
<rect width="24" height="24" fill="white" transform="translate(24 14)"/>
</clipPath>
</defs>
</svg>
