<svg width="20" height="24" viewBox="0 0 20 24" fill="none" xmlns="http://www.w3.org/2000/svg">
<path d="M18.15 15.5813V10.5014C18.15 7.06279 16.0212 4.11362 13.0159 2.90893C12.9544 1.29463 11.6255 0 9.99995 0C8.37441 0 7.04536 1.29463 6.98395 2.90893C3.97862 4.11362 1.84989 7.06279 1.84989 10.5014V15.5813C1.02209 15.6994 0.383789 16.414 0.383789 17.275V18.4338C0.383789 19.3773 1.15009 20.1449 2.09207 20.1449H7.09635C7.02048 20.4122 6.98104 20.6911 6.98104 20.9743C6.98104 22.6427 8.33538 24 9.99995 24C11.6645 24 13.0188 22.6427 13.0188 20.9743C13.0188 20.691 12.9794 20.4122 12.9035 20.1449H17.9078C18.8497 20.1449 19.6161 19.3773 19.6161 18.4338V17.275C19.6161 16.414 18.9778 15.6994 18.15 15.5813ZM9.99995 22.3606C9.2393 22.3606 8.62047 21.7387 8.62047 20.9743C8.62047 20.7407 8.67874 20.5138 8.78775 20.3124H11.2122C11.3212 20.5138 11.3793 20.7408 11.3793 20.9743C11.3793 21.7387 10.7605 22.3606 9.99995 22.3606ZM9.99995 1.63952C10.5454 1.63952 11.0165 1.96024 11.2403 2.42303C10.8358 2.36081 10.4215 2.32857 9.99995 2.32857C9.57829 2.32857 9.16407 2.36081 8.75947 2.42303C8.98322 1.96024 9.45441 1.63952 9.99995 1.63952ZM17.9766 18.4338C17.9766 18.4713 17.9439 18.5054 17.9078 18.5054H2.09207C2.05611 18.5054 2.02338 18.4713 2.02338 18.4338V17.275C2.02338 17.2376 2.05611 17.2036 2.09207 17.2036H2.66953C3.12229 17.2036 3.48932 16.8365 3.48932 16.3838V10.5013C3.48932 6.89883 6.41005 3.968 9.99995 3.968C13.5898 3.968 16.5106 6.89883 16.5106 10.5013V16.3838C16.5106 16.8364 16.8776 17.2036 17.3304 17.2036H17.9078C17.9438 17.2036 17.9766 17.2376 17.9766 17.275V18.4338Z" fill="#14142A"/>
</svg>
