<svg width="103" height="112" viewBox="0 0 103 112" fill="none" xmlns="http://www.w3.org/2000/svg">
<path d="M32.3341 58.2168C32.3341 58.2168 18.6518 57.853 5.07171 69.586C5.07171 69.586 22.6335 77.0896 28.7985 77.9615C28.6819 78.0017 38.6889 58.5013 32.3341 58.2168Z" fill="#2BB7A6"/>
<path d="M34.4255 61.2769C32.2937 62.6652 30.0453 64.0937 27.7936 65.132C21.5816 67.929 14.96 68.3888 8.3619 67.014C7.31598 67.7665 6.19344 68.6759 5.07089 69.5853C5.07089 69.5853 22.6333 77.0892 28.7984 77.9611C28.6818 78.0014 34.395 66.897 34.4255 61.2769Z" fill="#17EDD3"/>
<path d="M52.7599 76.7193C52.7599 76.7193 53.1481 90.4102 41.6918 104.147C41.6918 104.147 34.0246 86.7093 33.0761 80.5155C33.1161 80.6322 52.4341 70.4409 52.7599 76.7193Z" fill="#2BB7A6"/>
<path d="M44.5655 75.6369C39.1648 77.371 33.0748 80.5168 33.0748 80.5168C33.9833 86.5932 41.6897 104.146 41.6897 104.146C42.076 103.752 42.4223 103.241 42.692 102.887C43.9014 93.8624 41.991 84.4806 44.5655 75.6369Z" fill="#17EDD3"/>
<path d="M62.3464 66.2542C49.1057 81.2616 33.5842 89.2295 27.6562 84.1014C21.7281 78.9733 27.8247 62.5189 41.1819 47.4712C54.5391 32.4235 75.8721 29.624 75.8721 29.624C75.8721 29.624 75.587 51.2467 62.3464 66.2542Z" fill="#B32AEC"/>
<path opacity="0.38" d="M75.6256 32.7078C71.7777 43.168 65.3486 52.5626 57.5807 60.3322C53.2138 64.7098 48.0609 68.3152 42.5117 71.1443C38.0883 73.4542 32.4559 75.6597 27.4566 74.3853C26.9104 74.313 26.4408 74.0837 26.0877 73.8143C25.0348 78.3523 25.6107 81.9366 27.8887 84.0201C33.7004 89.1885 49.2221 81.2205 62.5796 66.1726C72.5761 54.6332 75.0954 39.1526 75.6256 32.7078Z" fill="#590F78"/>
<path d="M73.4778 44.6817C75.8232 36.3067 75.8838 29.6336 75.8838 29.6336C75.8838 29.6336 69.2665 30.4835 61.2669 33.7672C66.1221 36.5257 70.2846 40.3059 73.4778 44.6817Z" fill="#17EDD3"/>
<path d="M59.7964 59.1809C64.1735 57.6696 66.5056 52.893 65.0052 48.5122C63.5048 44.1315 58.7401 41.8053 54.363 43.3167C49.9859 44.828 47.6538 49.6046 49.1542 53.9854C50.6546 58.3661 55.4193 60.6923 59.7964 59.1809Z" fill="#6367E7"/>
<path d="M59.157 57.3145C62.5042 56.1587 64.2876 52.5061 63.1402 49.1561C61.9929 45.806 58.3493 44.0272 55.0021 45.183C51.6549 46.3387 49.8715 49.9914 51.0189 53.3414C52.1662 56.6914 55.8098 58.4702 59.157 57.3145Z" fill="white"/>
<path d="M34.3311 73.1722L37.5116 75.9876L21.2368 91.6512L34.3311 73.1722Z" fill="white"/>
<g clip-path="url(#clip0_1209_4529)">
<path d="M97.9582 25.2857L94.3102 21.8571L89.4082 22.7714L91.6882 18.3143L89.1802 13.9714L94.0822 14.6571L97.5022 11L98.3002 15.9143L102.86 17.9714L98.5282 20.3714L97.9582 25.2857Z" fill="#6367E7"/>
</g>
<g clip-path="url(#clip1_1209_4529)">
<path d="M24.0224 29.8573L21.104 27.1144L17.1824 27.8459L19.0064 24.2801L17 20.8059L20.9216 21.3544L23.6576 18.4287L24.296 22.3601L27.944 24.0059L24.4784 25.9259L24.0224 29.8573Z" fill="#6367E7"/>
</g>
<path d="M53.0302 6L51.4302 4.56L49.2802 4.944L50.2802 3.072L49.1802 1.248L51.3302 1.536L52.8302 0L53.1802 2.064L55.1802 2.928L53.2802 3.936L53.0302 6Z" fill="#6367E7"/>
<defs>
<clipPath id="clip0_1209_4529">
<rect width="13.68" height="14.2857" fill="white" transform="translate(89.1802 11)"/>
</clipPath>
<clipPath id="clip1_1209_4529">
<rect width="10.944" height="11.4286" fill="white" transform="translate(17 18.4287)"/>
</clipPath>
</defs>
</svg>
