<svg width="22" height="22" viewBox="0 0 22 22" fill="none" xmlns="http://www.w3.org/2000/svg">
<path d="M20.8289 1.17238C20.6632 1.0066 20.4145 0.955622 20.197 1.04265L1.36883 8.57384C1.1534 8.66001 1.00914 8.86517 1.00086 9.09708C0.992618 9.32896 1.12199 9.54384 1.33074 9.64509L8.75528 13.2459L12.3561 20.6705C12.4544 20.873 12.6594 21.0007 12.8832 21.0007C12.8902 21.0007 12.8972 21.0006 12.9042 21.0003C13.136 20.9921 13.3412 20.8478 13.4274 20.6324L20.9586 1.80433C21.0457 1.58668 20.9947 1.33812 20.8289 1.17238ZM3.03539 9.16938L17.9817 3.1909L9.07435 12.0982L3.03539 9.16938ZM12.8319 18.9658L9.90298 12.9268L18.8104 4.01949L12.8319 18.9658Z" fill="white" fill-opacity="0.7"/>
</svg>
