<svg width="16" height="16" viewBox="0 0 16 16" fill="none" xmlns="http://www.w3.org/2000/svg">
<path d="M7.94551 9.10782C9.66417 9.10782 11.0624 7.70976 11.0624 5.99133C11.0624 4.2729 9.66417 2.87488 7.94551 2.87488C6.22686 2.87488 4.82861 4.2729 4.82861 5.99133C4.82861 7.70976 6.22686 9.10782 7.94551 9.10782ZM7.94551 3.98881C9.04986 3.98881 9.94833 4.88717 9.94833 5.99133C9.94833 7.09553 9.0499 7.99389 7.94551 7.99389C6.84112 7.99389 5.94269 7.09553 5.94269 5.99133C5.94269 4.88717 6.84116 3.98881 7.94551 3.98881Z" fill="#4E4B66"/>
<path d="M4.55175 11.5913C5.39603 12.7342 5.05683 12.2897 7.48868 15.7618C7.70972 16.0786 8.17975 16.0801 8.40204 15.7623C10.8449 12.2737 10.5088 12.7156 11.3393 11.5913C12.1806 10.4522 13.0507 9.27442 13.5274 7.89422C14.2174 5.89627 13.9192 3.91941 12.6876 2.32776C12.6876 2.32776 12.6876 2.32772 12.6875 2.32772C11.5594 0.870171 9.7867 0 7.94553 0C6.10436 0 4.33164 0.870171 3.20349 2.3278C1.97195 3.91944 1.67367 5.89634 2.36373 7.8943C2.84041 9.27445 3.71043 10.4523 4.55175 11.5913ZM4.08458 3.00946C5.00325 1.82256 6.44661 1.11393 7.94553 1.11393C9.44445 1.11393 10.8878 1.82256 11.8065 3.00946L11.8064 3.00943C12.8004 4.29403 13.0376 5.89972 12.4743 7.53066C12.0532 8.74976 11.2347 9.85786 10.4431 10.9295C9.82684 11.7638 10.0113 11.5086 7.94553 14.4698C5.88192 11.5116 6.06403 11.7636 5.44791 10.9295C4.65636 9.85786 3.83784 8.74972 3.41676 7.53066C2.85348 5.89968 3.09063 4.29403 4.08458 3.00946Z" fill="#4E4B66"/>
</svg>
