<svg width="16" height="16" viewBox="0 0 16 16" fill="none" xmlns="http://www.w3.org/2000/svg">
<path d="M12.7145 3.11899H11.4287V2.26184C11.4287 2.02513 11.2369 1.83325 11.0001 1.83325C10.7634 1.83325 10.5716 2.02513 10.5716 2.26184V3.11899H5.42862V2.26184C5.42862 2.02513 5.23674 1.83325 5.00006 1.83325C4.76338 1.83325 4.57147 2.02513 4.57147 2.26184V3.11899H3.28574C2.57564 3.11899 2 3.69463 2 4.40472V12.5477C2 13.2578 2.57564 13.8335 3.28574 13.8335H12.7145C13.4246 13.8335 14.0002 13.2578 14.0002 12.5477V4.40472C14.0002 3.69463 13.4246 3.11899 12.7145 3.11899ZM13.143 12.5477C13.143 12.7844 12.9511 12.9763 12.7144 12.9763H3.28574C3.04903 12.9763 2.85715 12.7844 2.85715 12.5477V6.97619H13.143V12.5477ZM13.143 6.11904H2.85715V4.40472C2.85715 4.16802 3.04903 3.97614 3.28574 3.97614H4.57147V4.83328C4.57147 5.06999 4.76335 5.26187 5.00006 5.26187C5.23676 5.26187 5.42864 5.06999 5.42864 4.83328V3.97614H10.5716V4.83328C10.5716 5.06999 10.7635 5.26187 11.0002 5.26187C11.2369 5.26187 11.4288 5.06999 11.4288 4.83328V3.97614H12.7145C12.9512 3.97614 13.1431 4.16802 13.1431 4.40472V6.11904H13.143Z" fill="#4E4B66"/>
<path d="M5.4288 7.83337H4.57165C4.33495 7.83337 4.14307 8.02526 4.14307 8.26196C4.14307 8.49867 4.33495 8.69055 4.57165 8.69055H5.4288C5.66551 8.69055 5.85739 8.49867 5.85739 8.26196C5.85739 8.02526 5.66551 7.83337 5.4288 7.83337Z" fill="#4E4B66"/>
<path d="M8.42881 7.83337H7.57165C7.33495 7.83337 7.14307 8.02526 7.14307 8.26196C7.14307 8.49867 7.33495 8.69055 7.57165 8.69055H8.42881C8.66551 8.69055 8.85739 8.49867 8.85739 8.26196C8.85739 8.02526 8.66551 7.83337 8.42881 7.83337Z" fill="#4E4B66"/>
<path d="M11.4283 7.83337H10.5712C10.3345 7.83337 10.1426 8.02526 10.1426 8.26196C10.1426 8.49867 10.3345 8.69055 10.5712 8.69055H11.4283C11.665 8.69055 11.8569 8.49867 11.8569 8.26196C11.8569 8.02526 11.665 7.83337 11.4283 7.83337Z" fill="#4E4B66"/>
<path d="M5.4288 9.54767H4.57165C4.33495 9.54767 4.14307 9.73955 4.14307 9.97625C4.14307 10.213 4.33495 10.4048 4.57165 10.4048H5.4288C5.66551 10.4048 5.85739 10.213 5.85739 9.97625C5.85739 9.73955 5.66551 9.54767 5.4288 9.54767Z" fill="#4E4B66"/>
<path d="M8.42881 9.54767H7.57165C7.33495 9.54767 7.14307 9.73955 7.14307 9.97625C7.14307 10.213 7.33495 10.4048 7.57165 10.4048H8.42881C8.66551 10.4048 8.85739 10.213 8.85739 9.97625C8.85739 9.73955 8.66551 9.54767 8.42881 9.54767Z" fill="#4E4B66"/>
<path d="M11.4283 9.54767H10.5712C10.3345 9.54767 10.1426 9.73955 10.1426 9.97625C10.1426 10.213 10.3345 10.4048 10.5712 10.4048H11.4283C11.665 10.4048 11.8569 10.213 11.8569 9.97625C11.8569 9.73955 11.665 9.54767 11.4283 9.54767Z" fill="#4E4B66"/>
<path d="M5.4288 11.262H4.57165C4.33495 11.262 4.14307 11.4539 4.14307 11.6906C4.14307 11.9273 4.33495 12.1192 4.57165 12.1192H5.4288C5.66551 12.1192 5.85739 11.9273 5.85739 11.6906C5.85739 11.4539 5.66551 11.262 5.4288 11.262Z" fill="#4E4B66"/>
<path d="M8.42881 11.262H7.57165C7.33495 11.262 7.14307 11.4539 7.14307 11.6906C7.14307 11.9273 7.33495 12.1192 7.57165 12.1192H8.42881C8.66551 12.1192 8.85739 11.9273 8.85739 11.6906C8.85739 11.4539 8.66551 11.262 8.42881 11.262Z" fill="#4E4B66"/>
<path d="M11.4283 11.262H10.5712C10.3345 11.262 10.1426 11.4539 10.1426 11.6906C10.1426 11.9273 10.3345 12.1192 10.5712 12.1192H11.4283C11.665 12.1192 11.8569 11.9273 11.8569 11.6906C11.8569 11.4539 11.665 11.262 11.4283 11.262Z" fill="#4E4B66"/>
</svg>
