<svg width="16" height="16" viewBox="0 0 16 16" fill="none" xmlns="http://www.w3.org/2000/svg">
<g clip-path="url(#clip0_1209_3977)">
<path d="M4.2959 9.89259L11.1879 11.3566L11.4766 9.96392L4.58457 8.48926L4.2959 9.89259Z" fill="#FF9800"/>
<path d="M4.14307 11.714H11.1871V13.132H4.14307V11.714Z" fill="#FF9800"/>
<path d="M5.19971 6.554L11.581 9.57133L12.1724 8.27533L5.78771 5.25L5.19971 6.554Z" fill="#FF9800"/>
<path d="M11.5834 9.57269L11.582 9.57129L11.5806 9.57269H11.5834Z" fill="#FF9800"/>
<path d="M1.3335 10.286V16H13.9948V10.286H12.5862V14.5713H2.74216V10.286H1.3335Z" fill="#757575"/>
<path d="M6.96875 3.37539L12.3748 7.95739L13.2721 6.85739L7.86608 2.27539L6.96875 3.37539Z" fill="#FF9800"/>
<path d="M14.6666 5.72467L10.4652 0L9.33789 0.857333L13.5392 6.582L14.6666 5.72467Z" fill="#FF9800"/>
</g>
<defs>
<clipPath id="clip0_1209_3977">
<rect width="16" height="16" fill="white"/>
</clipPath>
</defs>
</svg>
