<svg width="24" height="24" viewBox="0 0 24 24" fill="none" xmlns="http://www.w3.org/2000/svg">
<path d="M16.3477 7.22503L16.3477 7.22503L22.0376 8.04855C22.7071 8.14541 23.2532 8.60394 23.4623 9.245C23.6714 9.88608 23.5002 10.577 23.0157 11.0474L18.8985 15.0448C18.8985 15.0448 18.8984 15.0448 18.8984 15.0448C18.8294 15.1118 18.798 15.2083 18.8143 15.3028L19.7862 20.9473C19.9006 21.6116 19.6314 22.2707 19.084 22.6669C18.7749 22.8908 18.4129 23.0045 18.0485 23.0045C17.7678 23.0046 17.486 22.9371 17.2256 22.8008L12.1365 20.1359C12.051 20.0911 11.949 20.0912 11.8636 20.1359L11.8404 20.0916L11.8636 20.1359L6.77452 22.8008L6.75132 22.7565L6.77452 22.8008C6.17579 23.1143 5.4633 23.0631 4.91596 22.6669C4.36859 22.2708 4.09943 21.6117 4.2138 20.9473L5.18575 15.3029L5.23502 15.3114L5.18575 15.3029C5.20203 15.2084 5.17057 15.1119 5.10156 15.0448C5.10156 15.0448 5.10155 15.0448 5.10155 15.0448L0.984362 11.0474C0.499779 10.577 0.328523 9.88608 0.537716 9.245C0.746898 8.60394 1.29299 8.14541 1.96244 8.04855L7.65221 7.22508C7.74772 7.21124 7.83013 7.15155 7.87284 7.06549L16.3477 7.22503ZM16.3477 7.22503C16.2523 7.21123 16.1698 7.15153 16.1272 7.06544L16.0824 7.08764L16.1272 7.06544L13.5826 1.92997C13.2831 1.32555 12.6765 0.95 12 0.95C11.3235 0.95 10.7169 1.32555 10.4174 1.92998L7.87285 7.06547L16.3477 7.22503ZM17.9105 21.5027L17.9104 21.5027L12.8213 18.8377L12.7981 18.882L12.8213 18.8377C12.5642 18.7032 12.2822 18.6358 12.0001 18.6358C11.718 18.6358 11.436 18.7032 11.1789 18.8377L11.2021 18.882L11.1789 18.8377L6.08982 21.5026C5.94446 21.5787 5.82687 21.5135 5.78109 21.4804C5.73529 21.4473 5.63693 21.3562 5.66465 21.1953L5.61538 21.1868L5.66466 21.1953L6.6366 15.5509C6.73484 14.9804 6.54509 14.3986 6.12894 13.9946L2.01176 9.99723C1.89432 9.88314 1.9202 9.75188 1.93769 9.69841L1.93772 9.69833C1.95511 9.64486 2.01172 9.52333 2.17417 9.49985L2.17418 9.49985L7.86391 8.67632C8.43874 8.59314 8.9356 8.23372 9.1928 7.71462L11.7374 2.5791C11.81 2.43264 11.9434 2.41649 12.0002 2.41649C12.0563 2.41649 12.1881 2.43234 12.2611 2.57564L12.2629 2.57915L14.8075 7.71467C15.0646 8.23377 15.5614 8.59319 16.1362 8.67637L21.8261 9.4999L21.8332 9.45041L21.8261 9.4999C21.9885 9.52338 22.0451 9.64489 22.0625 9.69842C22.08 9.75201 22.1059 9.88329 21.9885 9.99726L21.9885 9.99727L17.8713 13.9947C17.4552 14.3986 17.2654 14.9804 17.3637 15.5509L18.3356 21.1954C18.3633 21.3562 18.265 21.4473 18.2192 21.4805C18.1733 21.5136 18.0557 21.5788 17.9105 21.5027Z" fill="#A0A3BD" stroke="#A0A3BD" stroke-width="0.1"/>
</svg>
