<svg width="776" height="900" viewBox="0 0 776 900" fill="none" xmlns="http://www.w3.org/2000/svg">
<path d="M203.814 65.1732C204.493 65.1732 205.043 64.6227 205.043 63.9436C205.043 63.2644 204.493 62.7139 203.814 62.7139C203.136 62.7139 202.585 63.2644 202.585 63.9436C202.585 64.6227 203.136 65.1732 203.814 65.1732Z" fill="#6367E7"/>
<path d="M201.766 95.9152C202.105 95.9152 202.38 95.64 202.38 95.3004C202.38 94.9608 202.105 94.6855 201.766 94.6855C201.427 94.6855 201.151 94.9608 201.151 95.3004C201.151 95.64 201.427 95.9152 201.766 95.9152Z" fill="#6367E7"/>
<path d="M0.819355 1.63958C1.27187 1.63958 1.63871 1.27254 1.63871 0.819788C1.63871 0.367032 1.27187 0 0.819355 0C0.366838 0 0 0.367032 0 0.819788C0 1.27254 0.366838 1.63958 0.819355 1.63958Z" fill="#6367E7"/>
<g style="mix-blend-mode:luminosity" filter="url(#filter0_d_1209_4703)">
<path d="M70.4647 182.198C71.7091 182.198 72.7179 181.188 72.7179 179.943C72.7179 178.698 71.7091 177.689 70.4647 177.689C69.2202 177.689 68.2114 178.698 68.2114 179.943C68.2114 181.188 69.2202 182.198 70.4647 182.198Z" fill="#6367E7"/>
</g>
<path d="M70.4642 182.198C71.7086 182.198 72.7174 181.189 72.7174 179.944C72.7174 178.699 71.7086 177.689 70.4642 177.689C69.2197 177.689 68.2109 178.699 68.2109 179.944C68.2109 181.189 69.2197 182.198 70.4642 182.198Z" fill="#6367E7"/>
<path d="M60.2227 451.089C62.0328 451.089 63.5002 449.62 63.5002 447.809C63.5002 445.998 62.0328 444.53 60.2227 444.53C58.4127 444.53 56.9453 445.998 56.9453 447.809C56.9453 449.62 58.4127 451.089 60.2227 451.089Z" fill="#6367E7"/>
<path d="M236.793 112.721C237.698 112.721 238.432 111.986 238.432 111.081C238.432 110.175 237.698 109.441 236.793 109.441C235.888 109.441 235.154 110.175 235.154 111.081C235.154 111.986 235.888 112.721 236.793 112.721Z" fill="#6367E7"/>
<path d="M434.639 141.279C435.544 141.279 436.277 140.545 436.277 139.64C436.277 138.734 435.544 138 434.639 138C433.734 138 433 138.734 433 139.64C433 140.545 433.734 141.279 434.639 141.279Z" fill="#6367E7"/>
<path d="M155.472 20.0846C156.264 20.0846 156.906 19.4423 156.906 18.65C156.906 17.8576 156.264 17.2153 155.472 17.2153C154.681 17.2153 154.039 17.8576 154.039 18.65C154.039 19.4423 154.681 20.0846 155.472 20.0846Z" fill="#6367E7"/>
<path d="M82.1399 62.714C82.9318 62.714 83.5738 62.0717 83.5738 61.2794C83.5738 60.487 82.9318 59.8447 82.1399 59.8447C81.348 59.8447 80.7061 60.487 80.7061 61.2794C80.7061 62.0717 81.348 62.714 82.1399 62.714Z" fill="#6367E7"/>
<path d="M109.998 522.205C111.243 522.205 112.252 521.196 112.252 519.951C112.252 518.706 111.243 517.696 109.998 517.696C108.754 517.696 107.745 518.706 107.745 519.951C107.745 521.196 108.754 522.205 109.998 522.205Z" fill="#6367E7"/>
<path d="M125.771 110.876C126.563 110.876 127.205 110.234 127.205 109.441C127.205 108.649 126.563 108.007 125.771 108.007C124.979 108.007 124.337 108.649 124.337 109.441C124.337 110.234 124.979 110.876 125.771 110.876Z" fill="#6367E7"/>
<path d="M7.3743 110.876C8.16621 110.876 8.80817 110.234 8.80817 109.441C8.80817 108.649 8.16621 108.007 7.3743 108.007C6.5824 108.007 5.94043 108.649 5.94043 109.441C5.94043 110.234 6.5824 110.876 7.3743 110.876Z" fill="#6367E7"/>
<path d="M84.3936 244.297C85.0724 244.297 85.6226 243.746 85.6226 243.067C85.6226 242.388 85.0724 241.837 84.3936 241.837C83.7148 241.837 83.1646 242.388 83.1646 243.067C83.1646 243.746 83.7148 244.297 84.3936 244.297Z" fill="#6367E7"/>
<path d="M251.951 155.555C253.196 155.555 254.205 154.545 254.205 153.3C254.205 152.055 253.196 151.046 251.951 151.046C250.707 151.046 249.698 152.055 249.698 153.3C249.698 154.545 250.707 155.555 251.951 155.555Z" fill="#6367E7"/>
<path d="M77.429 336.318C78.6734 336.318 79.6822 335.309 79.6822 334.064C79.6822 332.818 78.6734 331.809 77.429 331.809C76.1846 331.809 75.1758 332.818 75.1758 334.064C75.1758 335.309 76.1846 336.318 77.429 336.318Z" fill="#6367E7"/>
<path d="M32.9788 272.784C34.2232 272.784 35.232 271.775 35.232 270.53C35.232 269.285 34.2232 268.275 32.9788 268.275C31.7344 268.275 30.7256 269.285 30.7256 270.53C30.7256 271.775 31.7344 272.784 32.9788 272.784Z" fill="#6367E7"/>
<path d="M437.83 635.869C438.622 635.869 439.264 635.227 439.264 634.435C439.264 633.642 438.622 633 437.83 633C437.038 633 436.396 633.642 436.396 634.435C436.396 635.227 437.038 635.869 437.83 635.869Z" fill="#6367E7"/>
<path d="M319.434 635.869C320.226 635.869 320.868 635.227 320.868 634.435C320.868 633.642 320.226 633 319.434 633C318.642 633 318 633.642 318 634.435C318 635.227 318.642 635.869 319.434 635.869Z" fill="#6367E7"/>
<path d="M396.454 769.289C397.132 769.289 397.683 768.739 397.683 768.06C397.683 767.381 397.132 766.83 396.454 766.83C395.775 766.83 395.225 767.381 395.225 768.06C395.225 768.739 395.775 769.289 396.454 769.289Z" fill="#6367E7"/>
<g filter="url(#filter1_d_1209_4703)">
<path d="M564.756 682.039C566.412 682.039 567.755 680.696 567.755 679.039C567.755 677.382 566.412 676.039 564.756 676.039C563.1 676.039 561.758 677.382 561.758 679.039C561.758 680.696 563.1 682.039 564.756 682.039Z" fill="#6367E7"/>
</g>
<path d="M389.489 861.311C390.733 861.311 391.742 860.301 391.742 859.056C391.742 857.811 390.733 856.802 389.489 856.802C388.244 856.802 387.235 857.811 387.235 859.056C387.235 860.301 388.244 861.311 389.489 861.311Z" fill="#6367E7"/>
<g filter="url(#filter2_d_1209_4703)">
<path d="M345.784 799.269C347.44 799.269 348.782 797.925 348.782 796.269C348.782 794.612 347.44 793.269 345.784 793.269C344.128 793.269 342.786 794.612 342.786 796.269C342.786 797.925 344.128 799.269 345.784 799.269Z" fill="#6367E7"/>
</g>
<path d="M206.253 336.509C207.498 336.509 208.506 335.5 208.506 334.254C208.506 333.009 207.498 332 206.253 332C205.009 332 204 333.009 204 334.254C204 335.5 205.009 336.509 206.253 336.509Z" fill="#6367E7"/>
<path d="M611.105 699.594C611.897 699.594 612.539 698.952 612.539 698.159C612.539 697.367 611.897 696.725 611.105 696.725C610.313 696.725 609.671 697.367 609.671 698.159C609.671 698.952 610.313 699.594 611.105 699.594Z" fill="#6367E7"/>
<path d="M492.708 699.594C493.5 699.594 494.142 698.952 494.142 698.159C494.142 697.367 493.5 696.725 492.708 696.725C491.916 696.725 491.274 697.367 491.274 698.159C491.274 698.952 491.916 699.594 492.708 699.594Z" fill="#6367E7"/>
<path d="M569.728 833.014C570.406 833.014 570.957 832.464 570.957 831.784C570.957 831.105 570.406 830.555 569.728 830.555C569.049 830.555 568.499 831.105 568.499 831.784C568.499 832.464 569.049 833.014 569.728 833.014Z" fill="#6367E7"/>
<g filter="url(#filter3_d_1209_4703)">
<path d="M738.031 745.764C739.687 745.764 741.029 744.421 741.029 742.764C741.029 741.107 739.687 739.764 738.031 739.764C736.375 739.764 735.032 741.107 735.032 742.764C735.032 744.421 736.375 745.764 738.031 745.764Z" fill="#6367E7"/>
</g>
<path d="M518.313 861.502C519.557 861.502 520.566 860.493 520.566 859.248C520.566 858.003 519.557 856.993 518.313 856.993C517.068 856.993 516.06 858.003 516.06 859.248C516.06 860.493 517.068 861.502 518.313 861.502Z" fill="#6367E7"/>
<path d="M772.491 78.2C772.491 78.9919 773.133 79.6338 773.926 79.6338C774.718 79.6338 775.36 78.9919 775.36 78.2C775.36 77.4081 774.718 76.7661 773.926 76.7661C773.133 76.7661 772.491 77.4081 772.491 78.2Z" fill="#6367E7"/>
<g filter="url(#filter4_d_1209_4703)">
<path d="M311.509 106.804C311.509 108.46 312.852 109.802 314.509 109.802C316.165 109.802 317.509 108.46 317.509 106.804C317.509 105.148 316.165 103.805 314.509 103.805C312.852 103.805 311.509 105.148 311.509 106.804Z" fill="#6367E7"/>
</g>
<path d="M724.328 121.83C724.328 122.622 724.97 123.264 725.763 123.264C726.555 123.264 727.197 122.622 727.197 121.83C727.197 121.038 726.555 120.396 725.763 120.396C724.97 120.396 724.328 121.038 724.328 121.83Z" fill="#6367E7"/>
<path d="M558 169.434C558 170.226 558.642 170.868 559.435 170.868C560.227 170.868 560.869 170.226 560.869 169.434C560.869 168.642 560.227 168 559.435 168C558.642 168 558 168.642 558 169.434Z" fill="#6367E7"/>
<path d="M724.328 3.43387C724.328 4.22578 724.971 4.86774 725.763 4.86774C726.555 4.86774 727.198 4.22578 727.198 3.43387C727.198 2.64197 726.555 2 725.763 2C724.971 2 724.328 2.64197 724.328 3.43387Z" fill="#6367E7"/>
<path d="M590.908 80.4534C590.908 81.1322 591.459 81.6824 592.138 81.6824C592.817 81.6824 593.367 81.1322 593.367 80.4534C593.367 79.7746 592.817 79.2244 592.138 79.2244C591.459 79.2244 590.908 79.7746 590.908 80.4534Z" fill="#6367E7"/>
<path d="M679.65 248.011C679.65 249.256 680.659 250.264 681.905 250.264C683.15 250.264 684.159 249.256 684.159 248.011C684.159 246.767 683.15 245.758 681.905 245.758C680.659 245.758 679.65 246.767 679.65 248.011Z" fill="#6367E7"/>
<path d="M498.887 73.4888C498.887 74.7332 499.896 75.7421 501.141 75.7421C502.386 75.7421 503.396 74.7332 503.396 73.4888C503.396 72.2444 502.386 71.2356 501.141 71.2356C499.896 71.2356 498.887 72.2444 498.887 73.4888Z" fill="#6367E7"/>
<g filter="url(#filter5_d_1209_4703)">
<path d="M560.929 29.784C560.929 31.44 562.273 32.7825 563.929 32.7825C565.586 32.7825 566.929 31.44 566.929 29.784C566.929 28.1281 565.586 26.7856 563.929 26.7856C562.273 26.7856 560.929 28.1281 560.929 29.784Z" fill="#6367E7"/>
</g>
<path d="M383.491 801.2C383.491 801.992 384.133 802.634 384.926 802.634C385.718 802.634 386.36 801.992 386.36 801.2C386.36 800.408 385.718 799.766 384.926 799.766C384.133 799.766 383.491 800.408 383.491 801.2Z" fill="#6367E7"/>
<path d="M335.328 844.831C335.328 845.623 335.971 846.264 336.763 846.264C337.555 846.264 338.198 845.623 338.198 844.831C338.198 844.039 337.555 843.397 336.763 843.397C335.971 843.397 335.328 844.039 335.328 844.831Z" fill="#6367E7"/>
<path d="M335.328 726.434C335.328 727.226 335.971 727.868 336.763 727.868C337.555 727.868 338.198 727.226 338.198 726.434C338.198 725.642 337.555 725 336.763 725C335.971 725 335.328 725.642 335.328 726.434Z" fill="#6367E7"/>
<path d="M201.908 803.453C201.908 804.132 202.459 804.682 203.138 804.682C203.817 804.682 204.367 804.132 204.367 803.453C204.367 802.775 203.817 802.224 203.138 802.224C202.459 802.224 201.908 802.775 201.908 803.453Z" fill="#6367E7"/>
<path d="M109.887 796.489C109.887 797.733 110.896 798.742 112.141 798.742C113.386 798.742 114.396 797.733 114.396 796.489C114.396 795.244 113.386 794.236 112.141 794.236C110.896 794.236 109.887 795.244 109.887 796.489Z" fill="#6367E7"/>
<g filter="url(#filter6_d_1209_4703)">
<path d="M173.421 752.039C173.421 753.283 174.43 754.292 175.675 754.292C176.92 754.292 177.929 753.283 177.929 752.039C177.929 750.794 176.92 749.786 175.675 749.786C174.43 749.786 173.421 750.794 173.421 752.039Z" fill="#6367E7"/>
</g>
<defs>
<filter id="filter0_d_1209_4703" x="63.2114" y="172.689" width="14.5063" height="14.5088" filterUnits="userSpaceOnUse" color-interpolation-filters="sRGB">
<feFlood flood-opacity="0" result="BackgroundImageFix"/>
<feColorMatrix in="SourceAlpha" type="matrix" values="0 0 0 0 0 0 0 0 0 0 0 0 0 0 0 0 0 0 127 0" result="hardAlpha"/>
<feOffset/>
<feGaussianBlur stdDeviation="2.5"/>
<feColorMatrix type="matrix" values="0 0 0 0 1 0 0 0 0 1 0 0 0 0 1 0 0 0 1 0"/>
<feBlend mode="normal" in2="BackgroundImageFix" result="effect1_dropShadow_1209_4703"/>
<feBlend mode="normal" in="SourceGraphic" in2="effect1_dropShadow_1209_4703" result="shape"/>
</filter>
<filter id="filter1_d_1209_4703" x="553.758" y="669.039" width="21.9968" height="22" filterUnits="userSpaceOnUse" color-interpolation-filters="sRGB">
<feFlood flood-opacity="0" result="BackgroundImageFix"/>
<feColorMatrix in="SourceAlpha" type="matrix" values="0 0 0 0 0 0 0 0 0 0 0 0 0 0 0 0 0 0 127 0" result="hardAlpha"/>
<feOffset dy="1"/>
<feGaussianBlur stdDeviation="4"/>
<feColorMatrix type="matrix" values="0 0 0 0 1 0 0 0 0 1 0 0 0 0 1 0 0 0 1 0"/>
<feBlend mode="normal" in2="BackgroundImageFix" result="effect1_dropShadow_1209_4703"/>
<feBlend mode="normal" in="SourceGraphic" in2="effect1_dropShadow_1209_4703" result="shape"/>
</filter>
<filter id="filter2_d_1209_4703" x="334.786" y="786.269" width="21.9968" height="22" filterUnits="userSpaceOnUse" color-interpolation-filters="sRGB">
<feFlood flood-opacity="0" result="BackgroundImageFix"/>
<feColorMatrix in="SourceAlpha" type="matrix" values="0 0 0 0 0 0 0 0 0 0 0 0 0 0 0 0 0 0 127 0" result="hardAlpha"/>
<feOffset dy="1"/>
<feGaussianBlur stdDeviation="4"/>
<feColorMatrix type="matrix" values="0 0 0 0 1 0 0 0 0 1 0 0 0 0 1 0 0 0 1 0"/>
<feBlend mode="normal" in2="BackgroundImageFix" result="effect1_dropShadow_1209_4703"/>
<feBlend mode="normal" in="SourceGraphic" in2="effect1_dropShadow_1209_4703" result="shape"/>
</filter>
<filter id="filter3_d_1209_4703" x="727.032" y="732.764" width="21.9968" height="22" filterUnits="userSpaceOnUse" color-interpolation-filters="sRGB">
<feFlood flood-opacity="0" result="BackgroundImageFix"/>
<feColorMatrix in="SourceAlpha" type="matrix" values="0 0 0 0 0 0 0 0 0 0 0 0 0 0 0 0 0 0 127 0" result="hardAlpha"/>
<feOffset dy="1"/>
<feGaussianBlur stdDeviation="4"/>
<feColorMatrix type="matrix" values="0 0 0 0 1 0 0 0 0 1 0 0 0 0 1 0 0 0 1 0"/>
<feBlend mode="normal" in2="BackgroundImageFix" result="effect1_dropShadow_1209_4703"/>
<feBlend mode="normal" in="SourceGraphic" in2="effect1_dropShadow_1209_4703" result="shape"/>
</filter>
<filter id="filter4_d_1209_4703" x="303.509" y="96.8052" width="22" height="21.9971" filterUnits="userSpaceOnUse" color-interpolation-filters="sRGB">
<feFlood flood-opacity="0" result="BackgroundImageFix"/>
<feColorMatrix in="SourceAlpha" type="matrix" values="0 0 0 0 0 0 0 0 0 0 0 0 0 0 0 0 0 0 127 0" result="hardAlpha"/>
<feOffset dy="1"/>
<feGaussianBlur stdDeviation="4"/>
<feColorMatrix type="matrix" values="0 0 0 0 1 0 0 0 0 1 0 0 0 0 1 0 0 0 1 0"/>
<feBlend mode="normal" in2="BackgroundImageFix" result="effect1_dropShadow_1209_4703"/>
<feBlend mode="normal" in="SourceGraphic" in2="effect1_dropShadow_1209_4703" result="shape"/>
</filter>
<filter id="filter5_d_1209_4703" x="552.929" y="19.7856" width="22" height="21.9968" filterUnits="userSpaceOnUse" color-interpolation-filters="sRGB">
<feFlood flood-opacity="0" result="BackgroundImageFix"/>
<feColorMatrix in="SourceAlpha" type="matrix" values="0 0 0 0 0 0 0 0 0 0 0 0 0 0 0 0 0 0 127 0" result="hardAlpha"/>
<feOffset dy="1"/>
<feGaussianBlur stdDeviation="4"/>
<feColorMatrix type="matrix" values="0 0 0 0 1 0 0 0 0 1 0 0 0 0 1 0 0 0 1 0"/>
<feBlend mode="normal" in2="BackgroundImageFix" result="effect1_dropShadow_1209_4703"/>
<feBlend mode="normal" in="SourceGraphic" in2="effect1_dropShadow_1209_4703" result="shape"/>
</filter>
<filter id="filter6_d_1209_4703" x="165.421" y="742.786" width="20.5088" height="20.5065" filterUnits="userSpaceOnUse" color-interpolation-filters="sRGB">
<feFlood flood-opacity="0" result="BackgroundImageFix"/>
<feColorMatrix in="SourceAlpha" type="matrix" values="0 0 0 0 0 0 0 0 0 0 0 0 0 0 0 0 0 0 127 0" result="hardAlpha"/>
<feOffset dy="1"/>
<feGaussianBlur stdDeviation="4"/>
<feColorMatrix type="matrix" values="0 0 0 0 1 0 0 0 0 1 0 0 0 0 1 0 0 0 1 0"/>
<feBlend mode="normal" in2="BackgroundImageFix" result="effect1_dropShadow_1209_4703"/>
<feBlend mode="normal" in="SourceGraphic" in2="effect1_dropShadow_1209_4703" result="shape"/>
</filter>
</defs>
</svg>
