<svg width="24" height="26" viewBox="0 0 24 26" fill="none" xmlns="http://www.w3.org/2000/svg">
<path d="M14.0293 12.9766H9.97086C5.97992 12.9766 2.73242 16.2236 2.73242 20.215V25H21.2677V20.215C21.2677 16.2236 18.0202 12.9766 14.0293 12.9766ZM4.13867 23.5938V20.215C4.13867 16.9989 6.75524 14.3828 9.97086 14.3828H14.0293C17.2449 14.3828 19.8615 16.9989 19.8615 20.215V23.5938H4.13867Z" fill="#14142A" stroke="black" stroke-width="0.2"/>
<path d="M12.0002 1C8.91393 1 6.40283 3.51109 6.40283 6.59734C6.40283 9.68359 8.91393 12.1947 12.0002 12.1947C15.0864 12.1947 17.5975 9.68359 17.5975 6.59734C17.5975 3.51109 15.0864 1 12.0002 1ZM12.0002 10.7884C9.68924 10.7884 7.80908 8.90828 7.80908 6.59734C7.80908 4.28641 9.68924 2.40625 12.0002 2.40625C14.3111 2.40625 16.1913 4.28641 16.1913 6.59734C16.1913 8.90828 14.3111 10.7884 12.0002 10.7884Z" fill="#14142A" stroke="black" stroke-width="0.2"/>
</svg>
